<svg xmlns="http://www.w3.org/2000/svg" width="1200" height="675" viewBox="0 0 1200 675" role="img"><defs><linearGradient id="g" gradientTransform="rotate(342 0.5 0.5)"><stop offset="0" stop-color="#5b93f0"/><stop offset="1" stop-color="#5b93f0"/></linearGradient><radialGradient id="halo" cx="78%" cy="22%" r="60%"><stop offset="0" stop-color="#5b93f0" stop-opacity="0.55"/><stop offset="1" stop-color="#5b93f0" stop-opacity="0"/></radialGradient><linearGradient id="scrim" x1="0" y1="0" x2="0" y2="1"><stop offset="0.45" stop-color="#0a0a08" stop-opacity="0"/><stop offset="1" stop-color="#0a0a08" stop-opacity="0.55"/></linearGradient><pattern id="grid" width="48" height="48" patternUnits="userSpaceOnUse"><path d="M48 0 H0 V48" fill="none" stroke="#f3f1ea" stroke-width="1" opacity="0.09"/></pattern></defs><rect width="1200" height="675" fill="#5b93f0"/><rect width="1200" height="675" fill="url(#g)"/><rect width="1200" height="675" fill="url(#halo)"/><rect width="1200" height="675" fill="url(#grid)"/><g stroke="#f3f1ea" stroke-width="2" opacity="0.16" fill="none"><line x1="1114" y1="533" x2="336" y2="525"/><line x1="336" y1="525" x2="214" y2="441"/><line x1="214" y1="441" x2="553" y2="29"/><line x1="553" y1="29" x2="489" y2="575"/><line x1="489" y1="575" x2="1156" y2="167"/><line x1="1156" y1="167" x2="740" y2="555"/><line x1="740" y1="555" x2="1114" y2="533"/></g><g fill="#f3f1ea" opacity="0.22"><circle cx="1114" cy="533" r="9"/><circle cx="336" cy="525" r="9"/><circle cx="214" cy="441" r="9"/><circle cx="553" cy="29" r="9"/><circle cx="489" cy="575" r="9"/><circle cx="1156" cy="167" r="9"/><circle cx="740" cy="555" r="9"/></g><rect width="1200" height="675" fill="url(#scrim)"/><text x="72" y="80" font-family="'JetBrains Mono','SFMono-Regular',Menlo,monospace" font-size="22" letter-spacing="3" fill="#f3f1ea" opacity="0.9">RYZE TECHNOLOGY</text><text x="1128" y="80" text-anchor="end" font-family="'JetBrains Mono','SFMono-Regular',Menlo,monospace" font-size="20" letter-spacing="4" fill="#f3f1ea" opacity="0.7">CASE STUDY</text><rect x="72" y="351" width="64" height="5" rx="2.5" fill="#f3f1ea"/><text font-family="'Space Grotesk','Segoe UI',system-ui,-apple-system,sans-serif" font-size="70" font-weight="700" fill="#f3f1ea" letter-spacing="-1"><tspan x="72" y="449">A learning app that</tspan><tspan x="72" y="526">made daily practice a</tspan><tspan x="72" y="603">habit</tspan></text></svg>
