<svg xmlns="http://www.w3.org/2000/svg" width="1200" height="900" viewBox="0 0 1200 900" role="img"><defs><linearGradient id="g" gradientTransform="rotate(56 0.5 0.5)"><stop offset="0" stop-color="#5b93f0"/><stop offset="1" stop-color="#2156c9"/></linearGradient><radialGradient id="halo" cx="78%" cy="22%" r="60%"><stop offset="0" stop-color="#5b93f0" stop-opacity="0.55"/><stop offset="1" stop-color="#5b93f0" stop-opacity="0"/></radialGradient><linearGradient id="scrim" x1="0" y1="0" x2="0" y2="1"><stop offset="0.45" stop-color="#0a0a08" stop-opacity="0"/><stop offset="1" stop-color="#0a0a08" stop-opacity="0.55"/></linearGradient><pattern id="grid" width="48" height="48" patternUnits="userSpaceOnUse"><path d="M48 0 H0 V48" fill="none" stroke="#f3f1ea" stroke-width="1" opacity="0.09"/></pattern></defs><rect width="1200" height="900" fill="#5b93f0"/><rect width="1200" height="900" fill="url(#g)"/><rect width="1200" height="900" fill="url(#halo)"/><rect width="1200" height="900" fill="url(#grid)"/><g fill="#f3f1ea" opacity="0.09"><rect x="33" y="8" width="813" height="132" rx="6"/><rect x="200" y="158" width="476" height="132" rx="6"/><rect x="144" y="308" width="493" height="132" rx="6"/><rect x="267" y="458" width="681" height="132" rx="6"/><rect x="234" y="608" width="489" height="132" rx="6"/><rect x="405" y="758" width="496" height="132" rx="6"/></g><rect width="1200" height="900" fill="url(#scrim)"/><text x="72" y="80" font-family="'JetBrains Mono','SFMono-Regular',Menlo,monospace" font-size="22" letter-spacing="3" fill="#f3f1ea" opacity="0.9">RYZE TECHNOLOGY</text><text x="1128" y="80" text-anchor="end" font-family="'JetBrains Mono','SFMono-Regular',Menlo,monospace" font-size="20" letter-spacing="4" fill="#f3f1ea" opacity="0.7">VIEW 03</text><rect x="72" y="614" width="64" height="5" rx="2.5" fill="#f3f1ea"/><text font-family="'Space Grotesk','Segoe UI',system-ui,-apple-system,sans-serif" font-size="58" font-weight="700" fill="#f3f1ea" letter-spacing="-1"><tspan x="72" y="700">A care companion app that</tspan><tspan x="72" y="764">keeps patients on track</tspan><tspan x="72" y="828">between</tspan></text></svg>
