<svg xmlns="http://www.w3.org/2000/svg" width="1200" height="900" viewBox="0 0 1200 900" role="img"><defs><linearGradient id="g" gradientTransform="rotate(40 0.5 0.5)"><stop offset="0" stop-color="#3a6fe0"/><stop offset="1" stop-color="#3a6fe0"/></linearGradient><radialGradient id="halo" cx="78%" cy="22%" r="60%"><stop offset="0" stop-color="#5b93f0" stop-opacity="0.55"/><stop offset="1" stop-color="#3a6fe0" stop-opacity="0"/></radialGradient><linearGradient id="scrim" x1="0" y1="0" x2="0" y2="1"><stop offset="0.45" stop-color="#0a0a08" stop-opacity="0"/><stop offset="1" stop-color="#0a0a08" stop-opacity="0.55"/></linearGradient><pattern id="grid" width="48" height="48" patternUnits="userSpaceOnUse"><path d="M48 0 H0 V48" fill="none" stroke="#f3f1ea" stroke-width="1" opacity="0.09"/></pattern></defs><rect width="1200" height="900" fill="#3a6fe0"/><rect width="1200" height="900" fill="url(#g)"/><rect width="1200" height="900" fill="url(#halo)"/><rect width="1200" height="900" fill="url(#grid)"/><g stroke="#f3f1ea" stroke-width="2" opacity="0.16" fill="none"><line x1="988" y1="316" x2="1079" y2="634"/><line x1="1079" y1="634" x2="664" y2="278"/><line x1="664" y1="278" x2="924" y2="804"/><line x1="924" y1="804" x2="460" y2="229"/><line x1="460" y1="229" x2="1165" y2="795"/><line x1="1165" y1="795" x2="886" y2="282"/><line x1="886" y1="282" x2="988" y2="316"/></g><g fill="#f3f1ea" opacity="0.22"><circle cx="988" cy="316" r="9"/><circle cx="1079" cy="634" r="9"/><circle cx="664" cy="278" r="9"/><circle cx="924" cy="804" r="9"/><circle cx="460" cy="229" r="9"/><circle cx="1165" cy="795" r="9"/><circle cx="886" cy="282" r="9"/></g><rect width="1200" height="900" fill="url(#scrim)"/><text x="72" y="80" font-family="'JetBrains Mono','SFMono-Regular',Menlo,monospace" font-size="22" letter-spacing="3" fill="#f3f1ea" opacity="0.9">RYZE TECHNOLOGY</text><text x="1128" y="80" text-anchor="end" font-family="'JetBrains Mono','SFMono-Regular',Menlo,monospace" font-size="20" letter-spacing="4" fill="#f3f1ea" opacity="0.7">VIEW 01</text><rect x="72" y="614" width="64" height="5" rx="2.5" fill="#f3f1ea"/><text font-family="'Space Grotesk','Segoe UI',system-ui,-apple-system,sans-serif" font-size="58" font-weight="700" fill="#f3f1ea" letter-spacing="-1"><tspan x="72" y="700">An operations hub that</tspan><tspan x="72" y="764">replaced spreadsheets for</tspan><tspan x="72" y="828">a</tspan></text></svg>
