<svg xmlns="http://www.w3.org/2000/svg" width="1200" height="675" viewBox="0 0 1200 675" role="img"><defs><linearGradient id="g" gradientTransform="rotate(306 0.5 0.5)"><stop offset="0" stop-color="#3a6fe0"/><stop offset="1" stop-color="#5b93f0"/></linearGradient><radialGradient id="halo" cx="78%" cy="22%" r="60%"><stop offset="0" stop-color="#5b93f0" stop-opacity="0.55"/><stop offset="1" stop-color="#3a6fe0" stop-opacity="0"/></radialGradient><linearGradient id="scrim" x1="0" y1="0" x2="0" y2="1"><stop offset="0.45" stop-color="#0a0a08" stop-opacity="0"/><stop offset="1" stop-color="#0a0a08" stop-opacity="0.55"/></linearGradient><pattern id="grid" width="48" height="48" patternUnits="userSpaceOnUse"><path d="M48 0 H0 V48" fill="none" stroke="#f3f1ea" stroke-width="1" opacity="0.09"/></pattern></defs><rect width="1200" height="675" fill="#3a6fe0"/><rect width="1200" height="675" fill="url(#g)"/><rect width="1200" height="675" fill="url(#halo)"/><rect width="1200" height="675" fill="url(#grid)"/><g fill="none" stroke="#f3f1ea" stroke-width="2.5" opacity="0.16"><circle cx="1200" cy="675" r="120"/><circle cx="1200" cy="675" r="240"/><circle cx="1200" cy="675" r="360"/><circle cx="1200" cy="675" r="480"/><circle cx="1200" cy="675" r="600"/><circle cx="1200" cy="675" r="720"/><circle cx="1200" cy="675" r="840"/><circle cx="1200" cy="675" r="960"/></g><rect width="1200" height="675" fill="url(#scrim)"/><text x="72" y="80" font-family="'JetBrains Mono','SFMono-Regular',Menlo,monospace" font-size="22" letter-spacing="3" fill="#f3f1ea" opacity="0.9">RYZE TECHNOLOGY</text><text x="1128" y="80" text-anchor="end" font-family="'JetBrains Mono','SFMono-Regular',Menlo,monospace" font-size="20" letter-spacing="4" fill="#f3f1ea" opacity="0.7">ENGINEERING</text><rect x="72" y="428" width="64" height="5" rx="2.5" fill="#f3f1ea"/><text font-family="'Space Grotesk','Segoe UI',system-ui,-apple-system,sans-serif" font-size="70" font-weight="700" fill="#f3f1ea" letter-spacing="-1"><tspan x="72" y="526">Engineering for 99.8%</tspan><tspan x="72" y="603">Uptime Without Heroics</tspan></text></svg>
